<?xml version="1.0" encoding="UTF-8" standalone="no"?>
<!DOCTYPE svg PUBLIC "-//W3C//DTD SVG 1.1//EN"
 "http://www.w3.org/Graphics/SVG/1.1/DTD/svg11.dtd">
<!-- Generated by graphviz version 2.47.0 (0)
 -->
<!-- Title: snakemake_dag Pages: 1 -->
<svg width="1062pt" height="476pt"
 viewBox="0.00 0.00 1062.00 476.00" xmlns="http://www.w3.org/2000/svg" xmlns:xlink="http://www.w3.org/1999/xlink">
<g id="graph0" class="graph" transform="scale(1 1) rotate(0) translate(4 472)">
<title>snakemake_dag</title>
<polygon fill="white" stroke="transparent" points="-4,4 -4,-472 1058,-472 1058,4 -4,4"/>
<!-- 0 -->
<g id="node1" class="node">
<title>0</title>
<path fill="none" stroke="#56d88a" stroke-width="2" d="M604.5,-36C604.5,-36 543.5,-36 543.5,-36 537.5,-36 531.5,-30 531.5,-24 531.5,-24 531.5,-12 531.5,-12 531.5,-6 537.5,0 543.5,0 543.5,0 604.5,0 604.5,0 610.5,0 616.5,-6 616.5,-12 616.5,-12 616.5,-24 616.5,-24 616.5,-30 610.5,-36 604.5,-36"/>
<text text-anchor="middle" x="574" y="-15.5" font-family="sans" font-size="10.00">final_results_all</text>
</g>
<!-- 1 -->
<g id="node2" class="node">
<title>1</title>
<path fill="none" stroke="#56c9d8" stroke-width="2" d="M919.5,-180C919.5,-180 876.5,-180 876.5,-180 870.5,-180 864.5,-174 864.5,-168 864.5,-168 864.5,-156 864.5,-156 864.5,-150 870.5,-144 876.5,-144 876.5,-144 919.5,-144 919.5,-144 925.5,-144 931.5,-150 931.5,-156 931.5,-156 931.5,-168 931.5,-168 931.5,-174 925.5,-180 919.5,-180"/>
<text text-anchor="middle" x="898" y="-159.5" font-family="sans" font-size="10.00">INS_merge</text>
</g>
<!-- 1&#45;&gt;0 -->
<g id="edge1" class="edge">
<title>1&#45;&gt;0</title>
<path fill="none" stroke="grey" stroke-width="2" d="M868.57,-143.85C835.19,-124.81 778.79,-93.88 728,-72 694.99,-57.77 656.79,-44.61 626.69,-34.96"/>
<polygon fill="grey" stroke="grey" stroke-width="2" points="627.4,-31.51 616.81,-31.82 625.29,-38.18 627.4,-31.51"/>
</g>
<!-- 2 -->
<g id="node3" class="node">
<title>2</title>
<path fill="none" stroke="#d8a456" stroke-width="2" d="M925,-252C925,-252 871,-252 871,-252 865,-252 859,-246 859,-240 859,-240 859,-228 859,-228 859,-222 865,-216 871,-216 871,-216 925,-216 925,-216 931,-216 937,-222 937,-228 937,-228 937,-240 937,-240 937,-246 931,-252 925,-252"/>
<text text-anchor="middle" x="898" y="-231.5" font-family="sans" font-size="10.00">INS_call_filter</text>
</g>
<!-- 2&#45;&gt;1 -->
<g id="edge6" class="edge">
<title>2&#45;&gt;1</title>
<path fill="none" stroke="grey" stroke-width="2" d="M898,-215.7C898,-207.98 898,-198.71 898,-190.11"/>
<polygon fill="grey" stroke="grey" stroke-width="2" points="901.5,-190.1 898,-180.1 894.5,-190.1 901.5,-190.1"/>
</g>
<!-- 3 -->
<g id="node4" class="node">
<title>3</title>
<path fill="none" stroke="#568ad8" stroke-width="2" d="M858.5,-324C858.5,-324 797.5,-324 797.5,-324 791.5,-324 785.5,-318 785.5,-312 785.5,-312 785.5,-300 785.5,-300 785.5,-294 791.5,-288 797.5,-288 797.5,-288 858.5,-288 858.5,-288 864.5,-288 870.5,-294 870.5,-300 870.5,-300 870.5,-312 870.5,-312 870.5,-318 864.5,-324 858.5,-324"/>
<text text-anchor="middle" x="828" y="-309" font-family="sans" font-size="10.00">SVIM_call</text>
<text text-anchor="middle" x="828" y="-298" font-family="sans" font-size="10.00">aligner: pbmm2</text>
</g>
<!-- 3&#45;&gt;2 -->
<g id="edge8" class="edge">
<title>3&#45;&gt;2</title>
<path fill="none" stroke="grey" stroke-width="2" d="M845.3,-287.7C853.86,-279.14 864.34,-268.66 873.7,-259.3"/>
<polygon fill="grey" stroke="grey" stroke-width="2" points="876.3,-261.65 880.9,-252.1 871.35,-256.7 876.3,-261.65"/>
</g>
<!-- 4 -->
<g id="node5" class="node">
<title>4</title>
<path fill="none" stroke="#56a2d8" stroke-width="2" d="M612,-396C612,-396 528,-396 528,-396 522,-396 516,-390 516,-384 516,-384 516,-372 516,-372 516,-366 522,-360 528,-360 528,-360 612,-360 612,-360 618,-360 624,-366 624,-372 624,-372 624,-384 624,-384 624,-390 618,-396 612,-396"/>
<text text-anchor="middle" x="570" y="-375.5" font-family="sans" font-size="10.00">samtools_sort_index</text>
</g>
<!-- 4&#45;&gt;3 -->
<g id="edge9" class="edge">
<title>4&#45;&gt;3</title>
<path fill="none" stroke="grey" stroke-width="2" d="M624.33,-364.21C663.96,-354.62 719.14,-340.75 775.67,-324.3"/>
<polygon fill="grey" stroke="grey" stroke-width="2" points="776.88,-327.59 785.49,-321.42 774.91,-320.88 776.88,-327.59"/>
</g>
<!-- 8 -->
<g id="node9" class="node">
<title>8</title>
<path fill="none" stroke="#568ad8" stroke-width="2" d="M1042,-324C1042,-324 978,-324 978,-324 972,-324 966,-318 966,-312 966,-312 966,-300 966,-300 966,-294 972,-288 978,-288 978,-288 1042,-288 1042,-288 1048,-288 1054,-294 1054,-300 1054,-300 1054,-312 1054,-312 1054,-318 1048,-324 1042,-324"/>
<text text-anchor="middle" x="1010" y="-309" font-family="sans" font-size="10.00">SVIM_call</text>
<text text-anchor="middle" x="1010" y="-298" font-family="sans" font-size="10.00">aligner: NGMLR</text>
</g>
<!-- 4&#45;&gt;8 -->
<g id="edge13" class="edge">
<title>4&#45;&gt;8</title>
<path fill="none" stroke="grey" stroke-width="2" d="M624.06,-372.59C697.37,-365.96 832.42,-351.41 955.91,-324.03"/>
<polygon fill="grey" stroke="grey" stroke-width="2" points="956.93,-327.39 965.91,-321.78 955.39,-320.56 956.93,-327.39"/>
</g>
<!-- 11 -->
<g id="node12" class="node">
<title>11</title>
<path fill="none" stroke="#78d856" stroke-width="2" d="M234,-324C234,-324 170,-324 170,-324 164,-324 158,-318 158,-312 158,-312 158,-300 158,-300 158,-294 164,-288 170,-288 170,-288 234,-288 234,-288 240,-288 246,-294 246,-300 246,-300 246,-312 246,-312 246,-318 240,-324 234,-324"/>
<text text-anchor="middle" x="202" y="-309" font-family="sans" font-size="10.00">Sniffles_call</text>
<text text-anchor="middle" x="202" y="-298" font-family="sans" font-size="10.00">aligner: NGMLR</text>
</g>
<!-- 4&#45;&gt;11 -->
<g id="edge18" class="edge">
<title>4&#45;&gt;11</title>
<path fill="none" stroke="grey" stroke-width="2" d="M515.73,-370.28C454.67,-362.19 352.46,-347.03 256.02,-324.07"/>
<polygon fill="grey" stroke="grey" stroke-width="2" points="256.65,-320.62 246.11,-321.67 255.01,-327.42 256.65,-320.62"/>
</g>
<!-- 13 -->
<g id="node14" class="node">
<title>13</title>
<path fill="none" stroke="#78d856" stroke-width="2" d="M549.5,-324C549.5,-324 488.5,-324 488.5,-324 482.5,-324 476.5,-318 476.5,-312 476.5,-312 476.5,-300 476.5,-300 476.5,-294 482.5,-288 488.5,-288 488.5,-288 549.5,-288 549.5,-288 555.5,-288 561.5,-294 561.5,-300 561.5,-300 561.5,-312 561.5,-312 561.5,-318 555.5,-324 549.5,-324"/>
<text text-anchor="middle" x="519" y="-309" font-family="sans" font-size="10.00">Sniffles_call</text>
<text text-anchor="middle" x="519" y="-298" font-family="sans" font-size="10.00">aligner: pbmm2</text>
</g>
<!-- 4&#45;&gt;13 -->
<g id="edge20" class="edge">
<title>4&#45;&gt;13</title>
<path fill="none" stroke="grey" stroke-width="2" d="M557.39,-359.7C551.4,-351.47 544.12,-341.48 537.52,-332.42"/>
<polygon fill="grey" stroke="grey" stroke-width="2" points="540.18,-330.13 531.46,-324.1 534.52,-334.25 540.18,-330.13"/>
</g>
<!-- 19 -->
<g id="node20" class="node">
<title>19</title>
<path fill="none" stroke="#d8c356" stroke-width="2" d="M755.5,-324C755.5,-324 694.5,-324 694.5,-324 688.5,-324 682.5,-318 682.5,-312 682.5,-312 682.5,-300 682.5,-300 682.5,-294 688.5,-288 694.5,-288 694.5,-288 755.5,-288 755.5,-288 761.5,-288 767.5,-294 767.5,-300 767.5,-300 767.5,-312 767.5,-312 767.5,-318 761.5,-324 755.5,-324"/>
<text text-anchor="middle" x="725" y="-309" font-family="sans" font-size="10.00">pbsv_call</text>
<text text-anchor="middle" x="725" y="-298" font-family="sans" font-size="10.00">aligner: pbmm2</text>
</g>
<!-- 4&#45;&gt;19 -->
<g id="edge26" class="edge">
<title>4&#45;&gt;19</title>
<path fill="none" stroke="grey" stroke-width="2" d="M607.92,-359.88C629.01,-350.35 655.46,-338.41 677.87,-328.28"/>
<polygon fill="grey" stroke="grey" stroke-width="2" points="679.53,-331.37 687.21,-324.07 676.65,-324.99 679.53,-331.37"/>
</g>
<!-- 20 -->
<g id="node21" class="node">
<title>20</title>
<path fill="none" stroke="#56d86b" stroke-width="2" d="M652.5,-324C652.5,-324 591.5,-324 591.5,-324 585.5,-324 579.5,-318 579.5,-312 579.5,-312 579.5,-300 579.5,-300 579.5,-294 585.5,-288 591.5,-288 591.5,-288 652.5,-288 652.5,-288 658.5,-288 664.5,-294 664.5,-300 664.5,-300 664.5,-312 664.5,-312 664.5,-318 658.5,-324 652.5,-324"/>
<text text-anchor="middle" x="622" y="-309" font-family="sans" font-size="10.00">cuteSV_call</text>
<text text-anchor="middle" x="622" y="-298" font-family="sans" font-size="10.00">aligner: pbmm2</text>
</g>
<!-- 4&#45;&gt;20 -->
<g id="edge27" class="edge">
<title>4&#45;&gt;20</title>
<path fill="none" stroke="grey" stroke-width="2" d="M582.85,-359.7C589.03,-351.39 596.54,-341.28 603.32,-332.14"/>
<polygon fill="grey" stroke="grey" stroke-width="2" points="606.14,-334.22 609.29,-324.1 600.52,-330.04 606.14,-334.22"/>
</g>
<!-- 23 -->
<g id="node24" class="node">
<title>23</title>
<path fill="none" stroke="#56d86b" stroke-width="2" d="M340,-324C340,-324 276,-324 276,-324 270,-324 264,-318 264,-312 264,-312 264,-300 264,-300 264,-294 270,-288 276,-288 276,-288 340,-288 340,-288 346,-288 352,-294 352,-300 352,-300 352,-312 352,-312 352,-318 346,-324 340,-324"/>
<text text-anchor="middle" x="308" y="-309" font-family="sans" font-size="10.00">cuteSV_call</text>
<text text-anchor="middle" x="308" y="-298" font-family="sans" font-size="10.00">aligner: NGMLR</text>
</g>
<!-- 4&#45;&gt;23 -->
<g id="edge31" class="edge">
<title>4&#45;&gt;23</title>
<path fill="none" stroke="grey" stroke-width="2" d="M515.62,-364.19C475.53,-354.52 419.47,-340.54 361.82,-324.16"/>
<polygon fill="grey" stroke="grey" stroke-width="2" points="362.76,-320.78 352.18,-321.4 360.84,-327.51 362.76,-320.78"/>
</g>
<!-- 28 -->
<g id="node29" class="node">
<title>28</title>
<path fill="none" stroke="#d8c356" stroke-width="2" d="M446,-324C446,-324 382,-324 382,-324 376,-324 370,-318 370,-312 370,-312 370,-300 370,-300 370,-294 376,-288 382,-288 382,-288 446,-288 446,-288 452,-288 458,-294 458,-300 458,-300 458,-312 458,-312 458,-318 452,-324 446,-324"/>
<text text-anchor="middle" x="414" y="-309" font-family="sans" font-size="10.00">pbsv_call</text>
<text text-anchor="middle" x="414" y="-298" font-family="sans" font-size="10.00">aligner: NGMLR</text>
</g>
<!-- 4&#45;&gt;28 -->
<g id="edge42" class="edge">
<title>4&#45;&gt;28</title>
<path fill="none" stroke="grey" stroke-width="2" d="M531.84,-359.88C510.61,-350.35 483.99,-338.41 461.43,-328.28"/>
<polygon fill="grey" stroke="grey" stroke-width="2" points="462.59,-324.97 452.04,-324.07 459.73,-331.36 462.59,-324.97"/>
</g>
<!-- 5 -->
<g id="node6" class="node">
<title>5</title>
<path fill="none" stroke="#b6d856" stroke-width="2" d="M549,-468C549,-468 495,-468 495,-468 489,-468 483,-462 483,-456 483,-456 483,-444 483,-444 483,-438 489,-432 495,-432 495,-432 549,-432 549,-432 555,-432 561,-438 561,-444 561,-444 561,-456 561,-456 561,-462 555,-468 549,-468"/>
<text text-anchor="middle" x="522" y="-453" font-family="sans" font-size="10.00">NGMLR_map</text>
<text text-anchor="middle" x="522" y="-442" font-family="sans" font-size="10.00">sample: VF36</text>
</g>
<!-- 5&#45;&gt;4 -->
<g id="edge10" class="edge">
<title>5&#45;&gt;4</title>
<path fill="none" stroke="grey" stroke-width="2" d="M533.87,-431.7C539.5,-423.47 546.35,-413.48 552.57,-404.42"/>
<polygon fill="grey" stroke="grey" stroke-width="2" points="555.5,-406.33 558.27,-396.1 549.73,-402.37 555.5,-406.33"/>
</g>
<!-- 6 -->
<g id="node7" class="node">
<title>6</title>
<path fill="none" stroke="#56d8b1" stroke-width="2" d="M645,-468C645,-468 591,-468 591,-468 585,-468 579,-462 579,-456 579,-456 579,-444 579,-444 579,-438 585,-432 591,-432 591,-432 645,-432 645,-432 651,-432 657,-438 657,-444 657,-444 657,-456 657,-456 657,-462 651,-468 645,-468"/>
<text text-anchor="middle" x="618" y="-453" font-family="sans" font-size="10.00">pbmm2_map</text>
<text text-anchor="middle" x="618" y="-442" font-family="sans" font-size="10.00">sample: VF36</text>
</g>
<!-- 6&#45;&gt;4 -->
<g id="edge11" class="edge">
<title>6&#45;&gt;4</title>
<path fill="none" stroke="grey" stroke-width="2" d="M606.13,-431.7C600.5,-423.47 593.65,-413.48 587.43,-404.42"/>
<polygon fill="grey" stroke="grey" stroke-width="2" points="590.27,-402.37 581.73,-396.1 584.5,-406.33 590.27,-402.37"/>
</g>
<!-- 7 -->
<g id="node8" class="node">
<title>7</title>
<path fill="none" stroke="#d8a456" stroke-width="2" d="M1029,-252C1029,-252 975,-252 975,-252 969,-252 963,-246 963,-240 963,-240 963,-228 963,-228 963,-222 969,-216 975,-216 975,-216 1029,-216 1029,-216 1035,-216 1041,-222 1041,-228 1041,-228 1041,-240 1041,-240 1041,-246 1035,-252 1029,-252"/>
<text text-anchor="middle" x="1002" y="-231.5" font-family="sans" font-size="10.00">INS_call_filter</text>
</g>
<!-- 7&#45;&gt;1 -->
<g id="edge7" class="edge">
<title>7&#45;&gt;1</title>
<path fill="none" stroke="grey" stroke-width="2" d="M976.56,-215.88C963.21,-206.89 946.68,-195.76 932.22,-186.03"/>
<polygon fill="grey" stroke="grey" stroke-width="2" points="933.79,-182.87 923.54,-180.19 929.88,-188.68 933.79,-182.87"/>
</g>
<!-- 8&#45;&gt;7 -->
<g id="edge12" class="edge">
<title>8&#45;&gt;7</title>
<path fill="none" stroke="grey" stroke-width="2" d="M1008.02,-287.7C1007.14,-279.98 1006.08,-270.71 1005.1,-262.11"/>
<polygon fill="grey" stroke="grey" stroke-width="2" points="1008.57,-261.64 1003.95,-252.1 1001.61,-262.44 1008.57,-261.64"/>
</g>
<!-- 9 -->
<g id="node10" class="node">
<title>9</title>
<path fill="none" stroke="#d85656" stroke-width="2" d="M256,-180C256,-180 210,-180 210,-180 204,-180 198,-174 198,-168 198,-168 198,-156 198,-156 198,-150 204,-144 210,-144 210,-144 256,-144 256,-144 262,-144 268,-150 268,-156 268,-156 268,-168 268,-168 268,-174 262,-180 256,-180"/>
<text text-anchor="middle" x="233" y="-159.5" font-family="sans" font-size="10.00">DEL_merge</text>
</g>
<!-- 9&#45;&gt;0 -->
<g id="edge2" class="edge">
<title>9&#45;&gt;0</title>
<path fill="none" stroke="grey" stroke-width="2" d="M249.73,-143.84C270.46,-123.6 307.73,-90.38 346,-72 402.48,-44.87 473.63,-31.2 521.3,-24.61"/>
<polygon fill="grey" stroke="grey" stroke-width="2" points="521.94,-28.05 531.39,-23.27 521.02,-21.11 521.94,-28.05"/>
</g>
<!-- 10 -->
<g id="node11" class="node">
<title>10</title>
<path fill="none" stroke="#d6d856" stroke-width="2" d="M239.5,-252C239.5,-252 164.5,-252 164.5,-252 158.5,-252 152.5,-246 152.5,-240 152.5,-240 152.5,-228 152.5,-228 152.5,-222 158.5,-216 164.5,-216 164.5,-216 239.5,-216 239.5,-216 245.5,-216 251.5,-222 251.5,-228 251.5,-228 251.5,-240 251.5,-240 251.5,-246 245.5,-252 239.5,-252"/>
<text text-anchor="middle" x="202" y="-231.5" font-family="sans" font-size="10.00">DEL_Sniffles_filter</text>
</g>
<!-- 10&#45;&gt;9 -->
<g id="edge14" class="edge">
<title>10&#45;&gt;9</title>
<path fill="none" stroke="grey" stroke-width="2" d="M209.66,-215.7C213.19,-207.73 217.46,-198.1 221.37,-189.26"/>
<polygon fill="grey" stroke="grey" stroke-width="2" points="224.58,-190.67 225.43,-180.1 218.18,-187.83 224.58,-190.67"/>
</g>
<!-- 11&#45;&gt;10 -->
<g id="edge17" class="edge">
<title>11&#45;&gt;10</title>
<path fill="none" stroke="grey" stroke-width="2" d="M202,-287.7C202,-279.98 202,-270.71 202,-262.11"/>
<polygon fill="grey" stroke="grey" stroke-width="2" points="205.5,-262.1 202,-252.1 198.5,-262.1 205.5,-262.1"/>
</g>
<!-- 22 -->
<g id="node23" class="node">
<title>22</title>
<path fill="none" stroke="#56d87b" stroke-width="2" d="M336,-252C336,-252 282,-252 282,-252 276,-252 270,-246 270,-240 270,-240 270,-228 270,-228 270,-222 276,-216 282,-216 282,-216 336,-216 336,-216 342,-216 348,-222 348,-228 348,-228 348,-240 348,-240 348,-246 342,-252 336,-252"/>
<text text-anchor="middle" x="309" y="-231.5" font-family="sans" font-size="10.00">INV_call_filter</text>
</g>
<!-- 11&#45;&gt;22 -->
<g id="edge30" class="edge">
<title>11&#45;&gt;22</title>
<path fill="none" stroke="grey" stroke-width="2" d="M228.18,-287.88C242.04,-278.81 259.24,-267.55 274.21,-257.76"/>
<polygon fill="grey" stroke="grey" stroke-width="2" points="276.27,-260.59 282.72,-252.19 272.44,-254.74 276.27,-260.59"/>
</g>
<!-- 27 -->
<g id="node28" class="node">
<title>27</title>
<path fill="none" stroke="#56d8c9" stroke-width="2" d="M415.5,-252C415.5,-252 378.5,-252 378.5,-252 372.5,-252 366.5,-246 366.5,-240 366.5,-240 366.5,-228 366.5,-228 366.5,-222 372.5,-216 378.5,-216 378.5,-216 415.5,-216 415.5,-216 421.5,-216 427.5,-222 427.5,-228 427.5,-228 427.5,-240 427.5,-240 427.5,-246 421.5,-252 415.5,-252"/>
<text text-anchor="middle" x="397" y="-231.5" font-family="sans" font-size="10.00">TRA_filter</text>
</g>
<!-- 11&#45;&gt;27 -->
<g id="edge40" class="edge">
<title>11&#45;&gt;27</title>
<path fill="none" stroke="grey" stroke-width="2" d="M246.07,-290.88C275.12,-281.35 314.17,-268.14 356.67,-252"/>
<polygon fill="grey" stroke="grey" stroke-width="2" points="357.99,-255.24 366.08,-248.4 355.49,-248.71 357.99,-255.24"/>
</g>
<!-- 12 -->
<g id="node13" class="node">
<title>12</title>
<path fill="none" stroke="#d6d856" stroke-width="2" d="M532.5,-252C532.5,-252 457.5,-252 457.5,-252 451.5,-252 445.5,-246 445.5,-240 445.5,-240 445.5,-228 445.5,-228 445.5,-222 451.5,-216 457.5,-216 457.5,-216 532.5,-216 532.5,-216 538.5,-216 544.5,-222 544.5,-228 544.5,-228 544.5,-240 544.5,-240 544.5,-246 538.5,-252 532.5,-252"/>
<text text-anchor="middle" x="495" y="-231.5" font-family="sans" font-size="10.00">DEL_Sniffles_filter</text>
</g>
<!-- 12&#45;&gt;9 -->
<g id="edge15" class="edge">
<title>12&#45;&gt;9</title>
<path fill="none" stroke="grey" stroke-width="2" d="M445.45,-218.63C442.26,-217.73 439.08,-216.85 436,-216 381.81,-201.12 319.21,-184.93 278.01,-174.41"/>
<polygon fill="grey" stroke="grey" stroke-width="2" points="278.83,-171 268.28,-171.92 277.1,-177.79 278.83,-171"/>
</g>
<!-- 13&#45;&gt;12 -->
<g id="edge19" class="edge">
<title>13&#45;&gt;12</title>
<path fill="none" stroke="grey" stroke-width="2" d="M513.07,-287.7C510.39,-279.9 507.17,-270.51 504.2,-261.83"/>
<polygon fill="grey" stroke="grey" stroke-width="2" points="507.42,-260.43 500.86,-252.1 500.8,-262.7 507.42,-260.43"/>
</g>
<!-- 26 -->
<g id="node27" class="node">
<title>26</title>
<path fill="none" stroke="#56d8c9" stroke-width="2" d="M611.5,-252C611.5,-252 574.5,-252 574.5,-252 568.5,-252 562.5,-246 562.5,-240 562.5,-240 562.5,-228 562.5,-228 562.5,-222 568.5,-216 574.5,-216 574.5,-216 611.5,-216 611.5,-216 617.5,-216 623.5,-222 623.5,-228 623.5,-228 623.5,-240 623.5,-240 623.5,-246 617.5,-252 611.5,-252"/>
<text text-anchor="middle" x="593" y="-231.5" font-family="sans" font-size="10.00">TRA_filter</text>
</g>
<!-- 13&#45;&gt;26 -->
<g id="edge37" class="edge">
<title>13&#45;&gt;26</title>
<path fill="none" stroke="grey" stroke-width="2" d="M537.29,-287.7C546.43,-279.05 557.64,-268.45 567.6,-259.03"/>
<polygon fill="grey" stroke="grey" stroke-width="2" points="570.06,-261.52 574.92,-252.1 565.25,-256.43 570.06,-261.52"/>
</g>
<!-- 14 -->
<g id="node15" class="node">
<title>14</title>
<path fill="none" stroke="#56d8a2" stroke-width="2" d="M122,-252C122,-252 12,-252 12,-252 6,-252 0,-246 0,-240 0,-240 0,-228 0,-228 0,-222 6,-216 12,-216 12,-216 122,-216 122,-216 128,-216 134,-222 134,-228 134,-228 134,-240 134,-240 134,-246 128,-252 122,-252"/>
<text text-anchor="middle" x="67" y="-231.5" font-family="sans" font-size="10.00">DEL_Assemblytics_format</text>
</g>
<!-- 14&#45;&gt;9 -->
<g id="edge16" class="edge">
<title>14&#45;&gt;9</title>
<path fill="none" stroke="grey" stroke-width="2" d="M107.61,-215.88C132.12,-205.54 163.38,-192.36 188.55,-181.74"/>
<polygon fill="grey" stroke="grey" stroke-width="2" points="190.02,-184.92 197.87,-177.81 187.3,-178.47 190.02,-184.92"/>
</g>
<!-- 15 -->
<g id="node16" class="node">
<title>15</title>
<path fill="none" stroke="#567bd8" stroke-width="2" d="M102.5,-324C102.5,-324 31.5,-324 31.5,-324 25.5,-324 19.5,-318 19.5,-312 19.5,-312 19.5,-300 19.5,-300 19.5,-294 25.5,-288 31.5,-288 31.5,-288 102.5,-288 102.5,-288 108.5,-288 114.5,-294 114.5,-300 114.5,-300 114.5,-312 114.5,-312 114.5,-318 108.5,-324 102.5,-324"/>
<text text-anchor="middle" x="67" y="-303.5" font-family="sans" font-size="10.00">Assemblytics_call</text>
</g>
<!-- 15&#45;&gt;14 -->
<g id="edge21" class="edge">
<title>15&#45;&gt;14</title>
<path fill="none" stroke="grey" stroke-width="2" d="M67,-287.7C67,-279.98 67,-270.71 67,-262.11"/>
<polygon fill="grey" stroke="grey" stroke-width="2" points="70.5,-262.1 67,-252.1 63.5,-262.1 70.5,-262.1"/>
</g>
<!-- 16 -->
<g id="node17" class="node">
<title>16</title>
<path fill="none" stroke="#d87d56" stroke-width="2" d="M98.5,-396C98.5,-396 35.5,-396 35.5,-396 29.5,-396 23.5,-390 23.5,-384 23.5,-384 23.5,-372 23.5,-372 23.5,-366 29.5,-360 35.5,-360 35.5,-360 98.5,-360 98.5,-360 104.5,-360 110.5,-366 110.5,-372 110.5,-372 110.5,-384 110.5,-384 110.5,-390 104.5,-396 98.5,-396"/>
<text text-anchor="middle" x="67" y="-381" font-family="sans" font-size="10.00">MuMmer4_map</text>
<text text-anchor="middle" x="67" y="-370" font-family="sans" font-size="10.00">sample: VF36</text>
</g>
<!-- 16&#45;&gt;15 -->
<g id="edge22" class="edge">
<title>16&#45;&gt;15</title>
<path fill="none" stroke="grey" stroke-width="2" d="M67,-359.7C67,-351.98 67,-342.71 67,-334.11"/>
<polygon fill="grey" stroke="grey" stroke-width="2" points="70.5,-334.1 67,-324.1 63.5,-334.1 70.5,-334.1"/>
</g>
<!-- 17 -->
<g id="node18" class="node">
<title>17</title>
<path fill="none" stroke="#8fd856" stroke-width="2" d="M707,-108C707,-108 659,-108 659,-108 653,-108 647,-102 647,-96 647,-96 647,-84 647,-84 647,-78 653,-72 659,-72 659,-72 707,-72 707,-72 713,-72 719,-78 719,-84 719,-84 719,-96 719,-96 719,-102 713,-108 707,-108"/>
<text text-anchor="middle" x="683" y="-87.5" font-family="sans" font-size="10.00">DUP_merge</text>
</g>
<!-- 17&#45;&gt;0 -->
<g id="edge3" class="edge">
<title>17&#45;&gt;0</title>
<path fill="none" stroke="grey" stroke-width="2" d="M656.34,-71.88C642.22,-62.81 624.69,-51.55 609.44,-41.76"/>
<polygon fill="grey" stroke="grey" stroke-width="2" points="611.07,-38.65 600.77,-36.19 607.29,-44.54 611.07,-38.65"/>
</g>
<!-- 18 -->
<g id="node19" class="node">
<title>18</title>
<path fill="none" stroke="#9fd856" stroke-width="2" d="M712.5,-252C712.5,-252 653.5,-252 653.5,-252 647.5,-252 641.5,-246 641.5,-240 641.5,-240 641.5,-228 641.5,-228 641.5,-222 647.5,-216 653.5,-216 653.5,-216 712.5,-216 712.5,-216 718.5,-216 724.5,-222 724.5,-228 724.5,-228 724.5,-240 724.5,-240 724.5,-246 718.5,-252 712.5,-252"/>
<text text-anchor="middle" x="683" y="-231.5" font-family="sans" font-size="10.00">DUP_call_filter</text>
</g>
<!-- 18&#45;&gt;17 -->
<g id="edge23" class="edge">
<title>18&#45;&gt;17</title>
<path fill="none" stroke="grey" stroke-width="2" d="M683,-215.87C683,-191.67 683,-147.21 683,-118.39"/>
<polygon fill="grey" stroke="grey" stroke-width="2" points="686.5,-118.19 683,-108.19 679.5,-118.19 686.5,-118.19"/>
</g>
<!-- 19&#45;&gt;18 -->
<g id="edge24" class="edge">
<title>19&#45;&gt;18</title>
<path fill="none" stroke="grey" stroke-width="2" d="M714.62,-287.7C709.74,-279.56 703.81,-269.69 698.42,-260.7"/>
<polygon fill="grey" stroke="grey" stroke-width="2" points="701.41,-258.88 693.26,-252.1 695.41,-262.48 701.41,-258.88"/>
</g>
<!-- 19&#45;&gt;26 -->
<g id="edge36" class="edge">
<title>19&#45;&gt;26</title>
<path fill="none" stroke="grey" stroke-width="2" d="M692.71,-287.88C674.52,-278.23 651.67,-266.11 632.43,-255.91"/>
<polygon fill="grey" stroke="grey" stroke-width="2" points="634.07,-252.82 623.6,-251.23 630.79,-259 634.07,-252.82"/>
</g>
<!-- 20&#45;&gt;18 -->
<g id="edge25" class="edge">
<title>20&#45;&gt;18</title>
<path fill="none" stroke="grey" stroke-width="2" d="M637.08,-287.7C644.39,-279.3 653.31,-269.07 661.34,-259.86"/>
<polygon fill="grey" stroke="grey" stroke-width="2" points="664.16,-261.94 668.09,-252.1 658.89,-257.34 664.16,-261.94"/>
</g>
<!-- 20&#45;&gt;26 -->
<g id="edge38" class="edge">
<title>20&#45;&gt;26</title>
<path fill="none" stroke="grey" stroke-width="2" d="M614.83,-287.7C611.57,-279.81 607.63,-270.3 604,-261.55"/>
<polygon fill="grey" stroke="grey" stroke-width="2" points="607.15,-260 600.09,-252.1 600.68,-262.68 607.15,-260"/>
</g>
<!-- 21 -->
<g id="node22" class="node">
<title>21</title>
<path fill="none" stroke="#d8b456" stroke-width="2" d="M410.5,-108C410.5,-108 367.5,-108 367.5,-108 361.5,-108 355.5,-102 355.5,-96 355.5,-96 355.5,-84 355.5,-84 355.5,-78 361.5,-72 367.5,-72 367.5,-72 410.5,-72 410.5,-72 416.5,-72 422.5,-78 422.5,-84 422.5,-84 422.5,-96 422.5,-96 422.5,-102 416.5,-108 410.5,-108"/>
<text text-anchor="middle" x="389" y="-87.5" font-family="sans" font-size="10.00">INV_merge</text>
</g>
<!-- 21&#45;&gt;0 -->
<g id="edge4" class="edge">
<title>21&#45;&gt;0</title>
<path fill="none" stroke="grey" stroke-width="2" d="M422.5,-76.32C450.15,-65.86 489.87,-50.83 521.7,-38.79"/>
<polygon fill="grey" stroke="grey" stroke-width="2" points="523.19,-41.97 531.3,-35.16 520.71,-35.42 523.19,-41.97"/>
</g>
<!-- 22&#45;&gt;21 -->
<g id="edge28" class="edge">
<title>22&#45;&gt;21</title>
<path fill="none" stroke="grey" stroke-width="2" d="M318.65,-215.87C332.46,-191.35 358,-146.03 374.21,-117.26"/>
<polygon fill="grey" stroke="grey" stroke-width="2" points="377.46,-118.62 379.32,-108.19 371.36,-115.18 377.46,-118.62"/>
</g>
<!-- 23&#45;&gt;22 -->
<g id="edge29" class="edge">
<title>23&#45;&gt;22</title>
<path fill="none" stroke="grey" stroke-width="2" d="M308.25,-287.7C308.36,-279.98 308.49,-270.71 308.61,-262.11"/>
<polygon fill="grey" stroke="grey" stroke-width="2" points="312.11,-262.15 308.76,-252.1 305.11,-262.05 312.11,-262.15"/>
</g>
<!-- 23&#45;&gt;27 -->
<g id="edge41" class="edge">
<title>23&#45;&gt;27</title>
<path fill="none" stroke="grey" stroke-width="2" d="M330,-287.7C341.21,-278.88 355,-268.03 367.15,-258.47"/>
<polygon fill="grey" stroke="grey" stroke-width="2" points="369.56,-261.04 375.25,-252.1 365.23,-255.54 369.56,-261.04"/>
</g>
<!-- 24 -->
<g id="node25" class="node">
<title>24</title>
<path fill="none" stroke="#68d856" stroke-width="2" d="M616.5,-108C616.5,-108 531.5,-108 531.5,-108 525.5,-108 519.5,-102 519.5,-96 519.5,-96 519.5,-84 519.5,-84 519.5,-78 525.5,-72 531.5,-72 531.5,-72 616.5,-72 616.5,-72 622.5,-72 628.5,-78 628.5,-84 628.5,-84 628.5,-96 628.5,-96 628.5,-102 622.5,-108 616.5,-108"/>
<text text-anchor="middle" x="574" y="-87.5" font-family="sans" font-size="10.00">TRA_remove_repeat</text>
</g>
<!-- 24&#45;&gt;0 -->
<g id="edge5" class="edge">
<title>24&#45;&gt;0</title>
<path fill="none" stroke="grey" stroke-width="2" d="M574,-71.7C574,-63.98 574,-54.71 574,-46.11"/>
<polygon fill="grey" stroke="grey" stroke-width="2" points="577.5,-46.1 574,-36.1 570.5,-46.1 577.5,-46.1"/>
</g>
<!-- 25 -->
<g id="node26" class="node">
<title>25</title>
<path fill="none" stroke="#56d8d8" stroke-width="2" d="M606,-180C606,-180 560,-180 560,-180 554,-180 548,-174 548,-168 548,-168 548,-156 548,-156 548,-150 554,-144 560,-144 560,-144 606,-144 606,-144 612,-144 618,-150 618,-156 618,-156 618,-168 618,-168 618,-174 612,-180 606,-180"/>
<text text-anchor="middle" x="583" y="-159.5" font-family="sans" font-size="10.00">TRA_merge</text>
</g>
<!-- 25&#45;&gt;24 -->
<g id="edge32" class="edge">
<title>25&#45;&gt;24</title>
<path fill="none" stroke="grey" stroke-width="2" d="M580.78,-143.7C579.78,-135.98 578.59,-126.71 577.49,-118.11"/>
<polygon fill="grey" stroke="grey" stroke-width="2" points="580.95,-117.58 576.2,-108.1 574,-118.47 580.95,-117.58"/>
</g>
<!-- 26&#45;&gt;25 -->
<g id="edge33" class="edge">
<title>26&#45;&gt;25</title>
<path fill="none" stroke="grey" stroke-width="2" d="M590.53,-215.7C589.43,-207.98 588.1,-198.71 586.87,-190.11"/>
<polygon fill="grey" stroke="grey" stroke-width="2" points="590.32,-189.51 585.44,-180.1 583.39,-190.5 590.32,-189.51"/>
</g>
<!-- 27&#45;&gt;25 -->
<g id="edge34" class="edge">
<title>27&#45;&gt;25</title>
<path fill="none" stroke="grey" stroke-width="2" d="M427.58,-219.45C430.42,-218.26 433.25,-217.09 436,-216 469.97,-202.49 508.91,-188.51 538.18,-178.31"/>
<polygon fill="grey" stroke="grey" stroke-width="2" points="539.41,-181.59 547.71,-175 537.12,-174.97 539.41,-181.59"/>
</g>
<!-- 28&#45;&gt;27 -->
<g id="edge39" class="edge">
<title>28&#45;&gt;27</title>
<path fill="none" stroke="grey" stroke-width="2" d="M409.8,-287.7C407.9,-279.9 405.62,-270.51 403.52,-261.83"/>
<polygon fill="grey" stroke="grey" stroke-width="2" points="406.92,-261 401.15,-252.1 400.11,-262.65 406.92,-261"/>
</g>
<!-- 29 -->
<g id="node30" class="node">
<title>29</title>
<path fill="none" stroke="#566bd8" stroke-width="2" d="M829,-252C829,-252 755,-252 755,-252 749,-252 743,-246 743,-240 743,-240 743,-228 743,-228 743,-222 749,-216 755,-216 755,-216 829,-216 829,-216 835,-216 841,-222 841,-228 841,-228 841,-240 841,-240 841,-246 835,-252 829,-252"/>
<text text-anchor="middle" x="792" y="-231.5" font-family="sans" font-size="10.00">TRA_SyRI_format</text>
</g>
<!-- 29&#45;&gt;25 -->
<g id="edge35" class="edge">
<title>29&#45;&gt;25</title>
<path fill="none" stroke="grey" stroke-width="2" d="M743,-216.59C708.19,-204.93 661.8,-189.39 627.94,-178.05"/>
<polygon fill="grey" stroke="grey" stroke-width="2" points="628.9,-174.68 618.3,-174.82 626.67,-181.32 628.9,-174.68"/>
</g>
<!-- 30 -->
<g id="node31" class="node">
<title>30</title>
<path fill="none" stroke="#c6d856" stroke-width="2" d="M935.5,-324C935.5,-324 900.5,-324 900.5,-324 894.5,-324 888.5,-318 888.5,-312 888.5,-312 888.5,-300 888.5,-300 888.5,-294 894.5,-288 900.5,-288 900.5,-288 935.5,-288 935.5,-288 941.5,-288 947.5,-294 947.5,-300 947.5,-300 947.5,-312 947.5,-312 947.5,-318 941.5,-324 935.5,-324"/>
<text text-anchor="middle" x="918" y="-303.5" font-family="sans" font-size="10.00">SyRI_call</text>
</g>
<!-- 30&#45;&gt;29 -->
<g id="edge43" class="edge">
<title>30&#45;&gt;29</title>
<path fill="none" stroke="grey" stroke-width="2" d="M888.46,-288.59C871.46,-279.14 849.87,-267.15 831.44,-256.91"/>
<polygon fill="grey" stroke="grey" stroke-width="2" points="833.11,-253.84 822.67,-252.04 829.71,-259.96 833.11,-253.84"/>
</g>
<!-- 31 -->
<g id="node32" class="node">
<title>31</title>
<path fill="none" stroke="#59d856" stroke-width="2" d="M948.5,-396C948.5,-396 887.5,-396 887.5,-396 881.5,-396 875.5,-390 875.5,-384 875.5,-384 875.5,-372 875.5,-372 875.5,-366 881.5,-360 887.5,-360 887.5,-360 948.5,-360 948.5,-360 954.5,-360 960.5,-366 960.5,-372 960.5,-372 960.5,-384 960.5,-384 960.5,-390 954.5,-396 948.5,-396"/>
<text text-anchor="middle" x="918" y="-381" font-family="sans" font-size="10.00">minimap2_map</text>
<text text-anchor="middle" x="918" y="-370" font-family="sans" font-size="10.00">sample: VF36</text>
</g>
<!-- 31&#45;&gt;30 -->
<g id="edge44" class="edge">
<title>31&#45;&gt;30</title>
<path fill="none" stroke="grey" stroke-width="2" d="M918,-359.7C918,-351.98 918,-342.71 918,-334.11"/>
<polygon fill="grey" stroke="grey" stroke-width="2" points="921.5,-334.1 918,-324.1 914.5,-334.1 921.5,-334.1"/>
</g>
</g>
</svg>
