<?xml version="1.0" encoding="UTF-8" standalone="no"?>
<!DOCTYPE svg PUBLIC "-//W3C//DTD SVG 1.1//EN"
 "http://www.w3.org/Graphics/SVG/1.1/DTD/svg11.dtd">
<!-- Generated by graphviz version 2.47.0 (0)
 -->
<!-- Title: snakemake_dag Pages: 1 -->
<svg width="749pt" height="476pt"
 viewBox="0.00 0.00 749.00 476.00" xmlns="http://www.w3.org/2000/svg" xmlns:xlink="http://www.w3.org/1999/xlink">
<g id="graph0" class="graph" transform="scale(1 1) rotate(0) translate(4 472)">
<title>snakemake_dag</title>
<polygon fill="white" stroke="transparent" points="-4,4 -4,-472 745,-472 745,4 -4,4"/>
<!-- 0 -->
<g id="node1" class="node">
<title>0</title>
<path fill="none" stroke="#d8c356" stroke-width="2" d="M413.5,-36C413.5,-36 352.5,-36 352.5,-36 346.5,-36 340.5,-30 340.5,-24 340.5,-24 340.5,-12 340.5,-12 340.5,-6 346.5,0 352.5,0 352.5,0 413.5,0 413.5,0 419.5,0 425.5,-6 425.5,-12 425.5,-12 425.5,-24 425.5,-24 425.5,-30 419.5,-36 413.5,-36"/>
<text text-anchor="middle" x="383" y="-15.5" font-family="sans" font-size="10.00">final_results_all</text>
</g>
<!-- 1 -->
<g id="node2" class="node">
<title>1</title>
<path fill="none" stroke="#568ad8" stroke-width="2" d="M219.5,-108C219.5,-108 176.5,-108 176.5,-108 170.5,-108 164.5,-102 164.5,-96 164.5,-96 164.5,-84 164.5,-84 164.5,-78 170.5,-72 176.5,-72 176.5,-72 219.5,-72 219.5,-72 225.5,-72 231.5,-78 231.5,-84 231.5,-84 231.5,-96 231.5,-96 231.5,-102 225.5,-108 219.5,-108"/>
<text text-anchor="middle" x="198" y="-87.5" font-family="sans" font-size="10.00">INS_merge</text>
</g>
<!-- 1&#45;&gt;0 -->
<g id="edge4" class="edge">
<title>1&#45;&gt;0</title>
<path fill="none" stroke="grey" stroke-width="2" d="M231.5,-76.32C259.15,-65.86 298.87,-50.83 330.7,-38.79"/>
<polygon fill="grey" stroke="grey" stroke-width="2" points="332.19,-41.97 340.3,-35.16 329.71,-35.42 332.19,-41.97"/>
</g>
<!-- 2 -->
<g id="node3" class="node">
<title>2</title>
<path fill="none" stroke="#8fd856" stroke-width="2" d="M66,-252C66,-252 12,-252 12,-252 6,-252 0,-246 0,-240 0,-240 0,-228 0,-228 0,-222 6,-216 12,-216 12,-216 66,-216 66,-216 72,-216 78,-222 78,-228 78,-228 78,-240 78,-240 78,-246 72,-252 66,-252"/>
<text text-anchor="middle" x="39" y="-231.5" font-family="sans" font-size="10.00">INS_call_filter</text>
</g>
<!-- 2&#45;&gt;1 -->
<g id="edge6" class="edge">
<title>2&#45;&gt;1</title>
<path fill="none" stroke="grey" stroke-width="2" d="M58.18,-215.87C86.35,-190.71 139.04,-143.65 171.08,-115.04"/>
<polygon fill="grey" stroke="grey" stroke-width="2" points="173.63,-117.46 178.75,-108.19 168.96,-112.24 173.63,-117.46"/>
</g>
<!-- 3 -->
<g id="node4" class="node">
<title>3</title>
<path fill="none" stroke="#56d8c9" stroke-width="2" d="M72,-324C72,-324 34,-324 34,-324 28,-324 22,-318 22,-312 22,-312 22,-300 22,-300 22,-294 28,-288 34,-288 34,-288 72,-288 72,-288 78,-288 84,-294 84,-300 84,-300 84,-312 84,-312 84,-318 78,-324 72,-324"/>
<text text-anchor="middle" x="53" y="-303.5" font-family="sans" font-size="10.00">SVIM_call</text>
</g>
<!-- 3&#45;&gt;2 -->
<g id="edge7" class="edge">
<title>3&#45;&gt;2</title>
<path fill="none" stroke="grey" stroke-width="2" d="M49.54,-287.7C48,-279.98 46.14,-270.71 44.42,-262.11"/>
<polygon fill="grey" stroke="grey" stroke-width="2" points="47.81,-261.22 42.42,-252.1 40.95,-262.6 47.81,-261.22"/>
</g>
<!-- 4 -->
<g id="node5" class="node">
<title>4</title>
<path fill="none" stroke="#d8b456" stroke-width="2" d="M491,-396C491,-396 407,-396 407,-396 401,-396 395,-390 395,-384 395,-384 395,-372 395,-372 395,-366 401,-360 407,-360 407,-360 491,-360 491,-360 497,-360 503,-366 503,-372 503,-372 503,-384 503,-384 503,-390 497,-396 491,-396"/>
<text text-anchor="middle" x="449" y="-375.5" font-family="sans" font-size="10.00">samtools_sort_index</text>
</g>
<!-- 4&#45;&gt;3 -->
<g id="edge8" class="edge">
<title>4&#45;&gt;3</title>
<path fill="none" stroke="grey" stroke-width="2" d="M394.73,-371.28C326.68,-363.51 206.72,-347.78 106,-324 102.09,-323.08 98.05,-322.01 94.03,-320.86"/>
<polygon fill="grey" stroke="grey" stroke-width="2" points="94.74,-317.42 84.16,-317.89 92.73,-324.12 94.74,-317.42"/>
</g>
<!-- 9 -->
<g id="node10" class="node">
<title>9</title>
<path fill="none" stroke="#567bd8" stroke-width="2" d="M428,-324C428,-324 382,-324 382,-324 376,-324 370,-318 370,-312 370,-312 370,-300 370,-300 370,-294 376,-288 382,-288 382,-288 428,-288 428,-288 434,-288 440,-294 440,-300 440,-300 440,-312 440,-312 440,-318 434,-324 428,-324"/>
<text text-anchor="middle" x="405" y="-303.5" font-family="sans" font-size="10.00">Sniffles_call</text>
</g>
<!-- 4&#45;&gt;9 -->
<g id="edge14" class="edge">
<title>4&#45;&gt;9</title>
<path fill="none" stroke="grey" stroke-width="2" d="M438.12,-359.7C433.01,-351.56 426.8,-341.69 421.16,-332.7"/>
<polygon fill="grey" stroke="grey" stroke-width="2" points="424.04,-330.71 415.75,-324.1 418.11,-334.43 424.04,-330.71"/>
</g>
<!-- 15 -->
<g id="node16" class="node">
<title>15</title>
<path fill="none" stroke="#d86656" stroke-width="2" d="M592,-324C592,-324 558,-324 558,-324 552,-324 546,-318 546,-312 546,-312 546,-300 546,-300 546,-294 552,-288 558,-288 558,-288 592,-288 592,-288 598,-288 604,-294 604,-300 604,-300 604,-312 604,-312 604,-318 598,-324 592,-324"/>
<text text-anchor="middle" x="575" y="-303.5" font-family="sans" font-size="10.00">pbsv_call</text>
</g>
<!-- 4&#45;&gt;15 -->
<g id="edge20" class="edge">
<title>4&#45;&gt;15</title>
<path fill="none" stroke="grey" stroke-width="2" d="M479.82,-359.88C497.02,-350.32 518.6,-338.33 536.86,-328.19"/>
<polygon fill="grey" stroke="grey" stroke-width="2" points="538.75,-331.14 545.79,-323.23 535.35,-325.02 538.75,-331.14"/>
</g>
<!-- 16 -->
<g id="node17" class="node">
<title>16</title>
<path fill="none" stroke="#56b1d8" stroke-width="2" d="M515.5,-324C515.5,-324 470.5,-324 470.5,-324 464.5,-324 458.5,-318 458.5,-312 458.5,-312 458.5,-300 458.5,-300 458.5,-294 464.5,-288 470.5,-288 470.5,-288 515.5,-288 515.5,-288 521.5,-288 527.5,-294 527.5,-300 527.5,-300 527.5,-312 527.5,-312 527.5,-318 521.5,-324 515.5,-324"/>
<text text-anchor="middle" x="493" y="-303.5" font-family="sans" font-size="10.00">cuteSV_call</text>
</g>
<!-- 4&#45;&gt;16 -->
<g id="edge21" class="edge">
<title>4&#45;&gt;16</title>
<path fill="none" stroke="grey" stroke-width="2" d="M459.88,-359.7C464.99,-351.56 471.2,-341.69 476.84,-332.7"/>
<polygon fill="grey" stroke="grey" stroke-width="2" points="479.89,-334.43 482.25,-324.1 473.96,-330.71 479.89,-334.43"/>
</g>
<!-- 5 -->
<g id="node6" class="node">
<title>5</title>
<path fill="none" stroke="#9fd856" stroke-width="2" d="M428,-468C428,-468 374,-468 374,-468 368,-468 362,-462 362,-456 362,-456 362,-444 362,-444 362,-438 368,-432 374,-432 374,-432 428,-432 428,-432 434,-432 440,-438 440,-444 440,-444 440,-456 440,-456 440,-462 434,-468 428,-468"/>
<text text-anchor="middle" x="401" y="-447.5" font-family="sans" font-size="10.00">NGMLR_map</text>
</g>
<!-- 5&#45;&gt;4 -->
<g id="edge9" class="edge">
<title>5&#45;&gt;4</title>
<path fill="none" stroke="grey" stroke-width="2" d="M412.87,-431.7C418.5,-423.47 425.35,-413.48 431.57,-404.42"/>
<polygon fill="grey" stroke="grey" stroke-width="2" points="434.5,-406.33 437.27,-396.1 428.73,-402.37 434.5,-406.33"/>
</g>
<!-- 6 -->
<g id="node7" class="node">
<title>6</title>
<path fill="none" stroke="#56d87b" stroke-width="2" d="M521.5,-468C521.5,-468 470.5,-468 470.5,-468 464.5,-468 458.5,-462 458.5,-456 458.5,-456 458.5,-444 458.5,-444 458.5,-438 464.5,-432 470.5,-432 470.5,-432 521.5,-432 521.5,-432 527.5,-432 533.5,-438 533.5,-444 533.5,-444 533.5,-456 533.5,-456 533.5,-462 527.5,-468 521.5,-468"/>
<text text-anchor="middle" x="496" y="-447.5" font-family="sans" font-size="10.00">pbmm2_map</text>
</g>
<!-- 6&#45;&gt;4 -->
<g id="edge10" class="edge">
<title>6&#45;&gt;4</title>
<path fill="none" stroke="grey" stroke-width="2" d="M484.38,-431.7C478.86,-423.47 472.15,-413.48 466.07,-404.42"/>
<polygon fill="grey" stroke="grey" stroke-width="2" points="468.96,-402.46 460.48,-396.1 463.15,-406.36 468.96,-402.46"/>
</g>
<!-- 7 -->
<g id="node8" class="node">
<title>7</title>
<path fill="none" stroke="#56c9d8" stroke-width="2" d="M321,-180C321,-180 275,-180 275,-180 269,-180 263,-174 263,-168 263,-168 263,-156 263,-156 263,-150 269,-144 275,-144 275,-144 321,-144 321,-144 327,-144 333,-150 333,-156 333,-156 333,-168 333,-168 333,-174 327,-180 321,-180"/>
<text text-anchor="middle" x="298" y="-159.5" font-family="sans" font-size="10.00">DEL_merge</text>
</g>
<!-- 7&#45;&gt;0 -->
<g id="edge2" class="edge">
<title>7&#45;&gt;0</title>
<path fill="none" stroke="grey" stroke-width="2" d="M304.6,-143.97C312.04,-125.58 325.09,-95.72 340,-72 346.02,-62.42 353.53,-52.62 360.59,-44.08"/>
<polygon fill="grey" stroke="grey" stroke-width="2" points="363.35,-46.24 367.14,-36.34 358.01,-41.71 363.35,-46.24"/>
</g>
<!-- 8 -->
<g id="node9" class="node">
<title>8</title>
<path fill="none" stroke="#d6d856" stroke-width="2" d="M335.5,-252C335.5,-252 260.5,-252 260.5,-252 254.5,-252 248.5,-246 248.5,-240 248.5,-240 248.5,-228 248.5,-228 248.5,-222 254.5,-216 260.5,-216 260.5,-216 335.5,-216 335.5,-216 341.5,-216 347.5,-222 347.5,-228 347.5,-228 347.5,-240 347.5,-240 347.5,-246 341.5,-252 335.5,-252"/>
<text text-anchor="middle" x="298" y="-231.5" font-family="sans" font-size="10.00">DEL_Sniffles_filter</text>
</g>
<!-- 8&#45;&gt;7 -->
<g id="edge11" class="edge">
<title>8&#45;&gt;7</title>
<path fill="none" stroke="grey" stroke-width="2" d="M298,-215.7C298,-207.98 298,-198.71 298,-190.11"/>
<polygon fill="grey" stroke="grey" stroke-width="2" points="301.5,-190.1 298,-180.1 294.5,-190.1 301.5,-190.1"/>
</g>
<!-- 9&#45;&gt;8 -->
<g id="edge13" class="edge">
<title>9&#45;&gt;8</title>
<path fill="none" stroke="grey" stroke-width="2" d="M378.82,-287.88C364.96,-278.81 347.76,-267.55 332.79,-257.76"/>
<polygon fill="grey" stroke="grey" stroke-width="2" points="334.56,-254.74 324.28,-252.19 330.73,-260.59 334.56,-254.74"/>
</g>
<!-- 18 -->
<g id="node19" class="node">
<title>18</title>
<path fill="none" stroke="#b6d856" stroke-width="2" d="M432,-252C432,-252 378,-252 378,-252 372,-252 366,-246 366,-240 366,-240 366,-228 366,-228 366,-222 372,-216 378,-216 378,-216 432,-216 432,-216 438,-216 444,-222 444,-228 444,-228 444,-240 444,-240 444,-246 438,-252 432,-252"/>
<text text-anchor="middle" x="405" y="-231.5" font-family="sans" font-size="10.00">INV_call_filter</text>
</g>
<!-- 9&#45;&gt;18 -->
<g id="edge24" class="edge">
<title>9&#45;&gt;18</title>
<path fill="none" stroke="grey" stroke-width="2" d="M405,-287.7C405,-279.98 405,-270.71 405,-262.11"/>
<polygon fill="grey" stroke="grey" stroke-width="2" points="408.5,-262.1 405,-252.1 401.5,-262.1 408.5,-262.1"/>
</g>
<!-- 21 -->
<g id="node22" class="node">
<title>21</title>
<path fill="none" stroke="#56d8d8" stroke-width="2" d="M511.5,-252C511.5,-252 474.5,-252 474.5,-252 468.5,-252 462.5,-246 462.5,-240 462.5,-240 462.5,-228 462.5,-228 462.5,-222 468.5,-216 474.5,-216 474.5,-216 511.5,-216 511.5,-216 517.5,-216 523.5,-222 523.5,-228 523.5,-228 523.5,-240 523.5,-240 523.5,-246 517.5,-252 511.5,-252"/>
<text text-anchor="middle" x="493" y="-231.5" font-family="sans" font-size="10.00">TRA_filter</text>
</g>
<!-- 9&#45;&gt;21 -->
<g id="edge30" class="edge">
<title>9&#45;&gt;21</title>
<path fill="none" stroke="grey" stroke-width="2" d="M426.75,-287.7C437.84,-278.88 451.47,-268.03 463.49,-258.47"/>
<polygon fill="grey" stroke="grey" stroke-width="2" points="465.85,-261.07 471.5,-252.1 461.49,-255.59 465.85,-261.07"/>
</g>
<!-- 10 -->
<g id="node11" class="node">
<title>10</title>
<path fill="none" stroke="#56a2d8" stroke-width="2" d="M218,-252C218,-252 108,-252 108,-252 102,-252 96,-246 96,-240 96,-240 96,-228 96,-228 96,-222 102,-216 108,-216 108,-216 218,-216 218,-216 224,-216 230,-222 230,-228 230,-228 230,-240 230,-240 230,-246 224,-252 218,-252"/>
<text text-anchor="middle" x="163" y="-231.5" font-family="sans" font-size="10.00">DEL_Assemblytics_format</text>
</g>
<!-- 10&#45;&gt;7 -->
<g id="edge12" class="edge">
<title>10&#45;&gt;7</title>
<path fill="none" stroke="grey" stroke-width="2" d="M196.02,-215.88C214.08,-206.51 236.65,-194.81 255.95,-184.8"/>
<polygon fill="grey" stroke="grey" stroke-width="2" points="257.58,-187.9 264.85,-180.19 254.36,-181.69 257.58,-187.9"/>
</g>
<!-- 11 -->
<g id="node12" class="node">
<title>11</title>
<path fill="none" stroke="#566bd8" stroke-width="2" d="M198.5,-324C198.5,-324 127.5,-324 127.5,-324 121.5,-324 115.5,-318 115.5,-312 115.5,-312 115.5,-300 115.5,-300 115.5,-294 121.5,-288 127.5,-288 127.5,-288 198.5,-288 198.5,-288 204.5,-288 210.5,-294 210.5,-300 210.5,-300 210.5,-312 210.5,-312 210.5,-318 204.5,-324 198.5,-324"/>
<text text-anchor="middle" x="163" y="-303.5" font-family="sans" font-size="10.00">Assemblytics_call</text>
</g>
<!-- 11&#45;&gt;10 -->
<g id="edge15" class="edge">
<title>11&#45;&gt;10</title>
<path fill="none" stroke="grey" stroke-width="2" d="M163,-287.7C163,-279.98 163,-270.71 163,-262.11"/>
<polygon fill="grey" stroke="grey" stroke-width="2" points="166.5,-262.1 163,-252.1 159.5,-262.1 166.5,-262.1"/>
</g>
<!-- 12 -->
<g id="node13" class="node">
<title>12</title>
<path fill="none" stroke="#56d88a" stroke-width="2" d="M194.5,-396C194.5,-396 131.5,-396 131.5,-396 125.5,-396 119.5,-390 119.5,-384 119.5,-384 119.5,-372 119.5,-372 119.5,-366 125.5,-360 131.5,-360 131.5,-360 194.5,-360 194.5,-360 200.5,-360 206.5,-366 206.5,-372 206.5,-372 206.5,-384 206.5,-384 206.5,-390 200.5,-396 194.5,-396"/>
<text text-anchor="middle" x="163" y="-375.5" font-family="sans" font-size="10.00">MuMmer4_map</text>
</g>
<!-- 12&#45;&gt;11 -->
<g id="edge16" class="edge">
<title>12&#45;&gt;11</title>
<path fill="none" stroke="grey" stroke-width="2" d="M163,-359.7C163,-351.98 163,-342.71 163,-334.11"/>
<polygon fill="grey" stroke="grey" stroke-width="2" points="166.5,-334.1 163,-324.1 159.5,-334.1 166.5,-334.1"/>
</g>
<!-- 13 -->
<g id="node14" class="node">
<title>13</title>
<path fill="none" stroke="#d87d56" stroke-width="2" d="M471,-180C471,-180 423,-180 423,-180 417,-180 411,-174 411,-168 411,-168 411,-156 411,-156 411,-150 417,-144 423,-144 423,-144 471,-144 471,-144 477,-144 483,-150 483,-156 483,-156 483,-168 483,-168 483,-174 477,-180 471,-180"/>
<text text-anchor="middle" x="447" y="-159.5" font-family="sans" font-size="10.00">DUP_merge</text>
</g>
<!-- 13&#45;&gt;0 -->
<g id="edge1" class="edge">
<title>13&#45;&gt;0</title>
<path fill="none" stroke="grey" stroke-width="2" d="M445.26,-143.83C442.87,-125.32 437.48,-95.37 426,-72 421.09,-62.01 413.99,-52.21 406.97,-43.81"/>
<polygon fill="grey" stroke="grey" stroke-width="2" points="409.56,-41.45 400.34,-36.22 404.29,-46.06 409.56,-41.45"/>
</g>
<!-- 14 -->
<g id="node15" class="node">
<title>14</title>
<path fill="none" stroke="#59d856" stroke-width="2" d="M612.5,-252C612.5,-252 553.5,-252 553.5,-252 547.5,-252 541.5,-246 541.5,-240 541.5,-240 541.5,-228 541.5,-228 541.5,-222 547.5,-216 553.5,-216 553.5,-216 612.5,-216 612.5,-216 618.5,-216 624.5,-222 624.5,-228 624.5,-228 624.5,-240 624.5,-240 624.5,-246 618.5,-252 612.5,-252"/>
<text text-anchor="middle" x="583" y="-231.5" font-family="sans" font-size="10.00">DUP_call_filter</text>
</g>
<!-- 14&#45;&gt;13 -->
<g id="edge17" class="edge">
<title>14&#45;&gt;13</title>
<path fill="none" stroke="grey" stroke-width="2" d="M549.73,-215.88C531.54,-206.51 508.81,-194.81 489.36,-184.8"/>
<polygon fill="grey" stroke="grey" stroke-width="2" points="490.89,-181.65 480.4,-180.19 487.69,-187.88 490.89,-181.65"/>
</g>
<!-- 15&#45;&gt;14 -->
<g id="edge19" class="edge">
<title>15&#45;&gt;14</title>
<path fill="none" stroke="grey" stroke-width="2" d="M576.98,-287.7C577.86,-279.98 578.92,-270.71 579.9,-262.11"/>
<polygon fill="grey" stroke="grey" stroke-width="2" points="583.39,-262.44 581.05,-252.1 576.43,-261.64 583.39,-262.44"/>
</g>
<!-- 15&#45;&gt;21 -->
<g id="edge29" class="edge">
<title>15&#45;&gt;21</title>
<path fill="none" stroke="grey" stroke-width="2" d="M554.73,-287.7C544.5,-278.97 531.94,-268.24 520.82,-258.75"/>
<polygon fill="grey" stroke="grey" stroke-width="2" points="522.91,-255.94 513.04,-252.1 518.37,-261.26 522.91,-255.94"/>
</g>
<!-- 16&#45;&gt;14 -->
<g id="edge18" class="edge">
<title>16&#45;&gt;14</title>
<path fill="none" stroke="grey" stroke-width="2" d="M515.25,-287.7C526.58,-278.88 540.53,-268.03 552.82,-258.47"/>
<polygon fill="grey" stroke="grey" stroke-width="2" points="555.26,-261.01 561.01,-252.1 550.97,-255.48 555.26,-261.01"/>
</g>
<!-- 16&#45;&gt;18 -->
<g id="edge23" class="edge">
<title>16&#45;&gt;18</title>
<path fill="none" stroke="grey" stroke-width="2" d="M471.25,-287.7C460.16,-278.88 446.53,-268.03 434.51,-258.47"/>
<polygon fill="grey" stroke="grey" stroke-width="2" points="436.51,-255.59 426.5,-252.1 432.15,-261.07 436.51,-255.59"/>
</g>
<!-- 16&#45;&gt;21 -->
<g id="edge28" class="edge">
<title>16&#45;&gt;21</title>
<path fill="none" stroke="grey" stroke-width="2" d="M493,-287.7C493,-279.98 493,-270.71 493,-262.11"/>
<polygon fill="grey" stroke="grey" stroke-width="2" points="496.5,-262.1 493,-252.1 489.5,-262.1 496.5,-262.1"/>
</g>
<!-- 17 -->
<g id="node18" class="node">
<title>17</title>
<path fill="none" stroke="#56d8a2" stroke-width="2" d="M404.5,-108C404.5,-108 361.5,-108 361.5,-108 355.5,-108 349.5,-102 349.5,-96 349.5,-96 349.5,-84 349.5,-84 349.5,-78 355.5,-72 361.5,-72 361.5,-72 404.5,-72 404.5,-72 410.5,-72 416.5,-78 416.5,-84 416.5,-84 416.5,-96 416.5,-96 416.5,-102 410.5,-108 404.5,-108"/>
<text text-anchor="middle" x="383" y="-87.5" font-family="sans" font-size="10.00">INV_merge</text>
</g>
<!-- 17&#45;&gt;0 -->
<g id="edge3" class="edge">
<title>17&#45;&gt;0</title>
<path fill="none" stroke="grey" stroke-width="2" d="M383,-71.7C383,-63.98 383,-54.71 383,-46.11"/>
<polygon fill="grey" stroke="grey" stroke-width="2" points="386.5,-46.1 383,-36.1 379.5,-46.1 386.5,-46.1"/>
</g>
<!-- 18&#45;&gt;17 -->
<g id="edge22" class="edge">
<title>18&#45;&gt;17</title>
<path fill="none" stroke="grey" stroke-width="2" d="M402.35,-215.87C398.6,-191.67 391.71,-147.21 387.24,-118.39"/>
<polygon fill="grey" stroke="grey" stroke-width="2" points="390.65,-117.54 385.66,-108.19 383.74,-118.61 390.65,-117.54"/>
</g>
<!-- 19 -->
<g id="node20" class="node">
<title>19</title>
<path fill="none" stroke="#68d856" stroke-width="2" d="M574.5,-108C574.5,-108 489.5,-108 489.5,-108 483.5,-108 477.5,-102 477.5,-96 477.5,-96 477.5,-84 477.5,-84 477.5,-78 483.5,-72 489.5,-72 489.5,-72 574.5,-72 574.5,-72 580.5,-72 586.5,-78 586.5,-84 586.5,-84 586.5,-96 586.5,-96 586.5,-102 580.5,-108 574.5,-108"/>
<text text-anchor="middle" x="532" y="-87.5" font-family="sans" font-size="10.00">TRA_remove_repeat</text>
</g>
<!-- 19&#45;&gt;0 -->
<g id="edge5" class="edge">
<title>19&#45;&gt;0</title>
<path fill="none" stroke="grey" stroke-width="2" d="M495.55,-71.88C475.36,-62.39 450.08,-50.51 428.59,-40.42"/>
<polygon fill="grey" stroke="grey" stroke-width="2" points="429.87,-37.15 419.33,-36.07 426.89,-43.49 429.87,-37.15"/>
</g>
<!-- 20 -->
<g id="node21" class="node">
<title>20</title>
<path fill="none" stroke="#56d86b" stroke-width="2" d="M559,-180C559,-180 513,-180 513,-180 507,-180 501,-174 501,-168 501,-168 501,-156 501,-156 501,-150 507,-144 513,-144 513,-144 559,-144 559,-144 565,-144 571,-150 571,-156 571,-156 571,-168 571,-168 571,-174 565,-180 559,-180"/>
<text text-anchor="middle" x="536" y="-159.5" font-family="sans" font-size="10.00">TRA_merge</text>
</g>
<!-- 20&#45;&gt;19 -->
<g id="edge25" class="edge">
<title>20&#45;&gt;19</title>
<path fill="none" stroke="grey" stroke-width="2" d="M535.01,-143.7C534.57,-135.98 534.04,-126.71 533.55,-118.11"/>
<polygon fill="grey" stroke="grey" stroke-width="2" points="537.04,-117.89 532.98,-108.1 530.05,-118.29 537.04,-117.89"/>
</g>
<!-- 21&#45;&gt;20 -->
<g id="edge26" class="edge">
<title>21&#45;&gt;20</title>
<path fill="none" stroke="grey" stroke-width="2" d="M503.63,-215.7C508.63,-207.56 514.69,-197.69 520.21,-188.7"/>
<polygon fill="grey" stroke="grey" stroke-width="2" points="523.24,-190.46 525.49,-180.1 517.28,-186.79 523.24,-190.46"/>
</g>
<!-- 22 -->
<g id="node23" class="node">
<title>22</title>
<path fill="none" stroke="#78d856" stroke-width="2" d="M729,-252C729,-252 655,-252 655,-252 649,-252 643,-246 643,-240 643,-240 643,-228 643,-228 643,-222 649,-216 655,-216 655,-216 729,-216 729,-216 735,-216 741,-222 741,-228 741,-228 741,-240 741,-240 741,-246 735,-252 729,-252"/>
<text text-anchor="middle" x="692" y="-231.5" font-family="sans" font-size="10.00">TRA_SyRI_format</text>
</g>
<!-- 22&#45;&gt;20 -->
<g id="edge27" class="edge">
<title>22&#45;&gt;20</title>
<path fill="none" stroke="grey" stroke-width="2" d="M653.84,-215.88C631.64,-205.92 603.56,-193.31 580.38,-182.91"/>
<polygon fill="grey" stroke="grey" stroke-width="2" points="581.66,-179.65 571.1,-178.75 578.79,-186.04 581.66,-179.65"/>
</g>
<!-- 23 -->
<g id="node24" class="node">
<title>23</title>
<path fill="none" stroke="#c6d856" stroke-width="2" d="M709.5,-324C709.5,-324 674.5,-324 674.5,-324 668.5,-324 662.5,-318 662.5,-312 662.5,-312 662.5,-300 662.5,-300 662.5,-294 668.5,-288 674.5,-288 674.5,-288 709.5,-288 709.5,-288 715.5,-288 721.5,-294 721.5,-300 721.5,-300 721.5,-312 721.5,-312 721.5,-318 715.5,-324 709.5,-324"/>
<text text-anchor="middle" x="692" y="-303.5" font-family="sans" font-size="10.00">SyRI_call</text>
</g>
<!-- 23&#45;&gt;22 -->
<g id="edge31" class="edge">
<title>23&#45;&gt;22</title>
<path fill="none" stroke="grey" stroke-width="2" d="M692,-287.7C692,-279.98 692,-270.71 692,-262.11"/>
<polygon fill="grey" stroke="grey" stroke-width="2" points="695.5,-262.1 692,-252.1 688.5,-262.1 695.5,-262.1"/>
</g>
<!-- 24 -->
<g id="node25" class="node">
<title>24</title>
<path fill="none" stroke="#d8a456" stroke-width="2" d="M722.5,-396C722.5,-396 661.5,-396 661.5,-396 655.5,-396 649.5,-390 649.5,-384 649.5,-384 649.5,-372 649.5,-372 649.5,-366 655.5,-360 661.5,-360 661.5,-360 722.5,-360 722.5,-360 728.5,-360 734.5,-366 734.5,-372 734.5,-372 734.5,-384 734.5,-384 734.5,-390 728.5,-396 722.5,-396"/>
<text text-anchor="middle" x="692" y="-375.5" font-family="sans" font-size="10.00">minimap2_map</text>
</g>
<!-- 24&#45;&gt;23 -->
<g id="edge32" class="edge">
<title>24&#45;&gt;23</title>
<path fill="none" stroke="grey" stroke-width="2" d="M692,-359.7C692,-351.98 692,-342.71 692,-334.11"/>
<polygon fill="grey" stroke="grey" stroke-width="2" points="695.5,-334.1 692,-324.1 688.5,-334.1 695.5,-334.1"/>
</g>
</g>
</svg>
